HIERARCHY
ROOT Hips
{
    OFFSET 0.000000 0.000000 0.000000
    CHANNELS 6 Xposition Yposition Zposition Zrotation Xrotation Yrotation
    JOINT Chest
    {
        OFFSET -0.000000 0.083210 0.000000
        CHANNELS 3 Zrotation Xrotation Yrotation
        JOINT Chest2
        {
            OFFSET -0.000000 0.256334 0.000000
            CHANNELS 3 Zrotation Xrotation Yrotation
            JOINT Neck
            {
                OFFSET -0.000000 0.255281 0.023207
                CHANNELS 3 Zrotation Xrotation Yrotation
                JOINT Head
                {
                    OFFSET -0.000000 0.142065 -0.020295
                    CHANNELS 3 Zrotation Xrotation Yrotation
                    End Site
                    {
                        OFFSET -0.000000 0.202951 0.000000
                    }
                }
            }
            JOINT LeftCollar
            {
                OFFSET 0.041044 0.235234 -0.000041
                CHANNELS 3 Zrotation Xrotation Yrotation
                JOINT LeftShoulder
                {
                    OFFSET 0.117964 0.000000 0.000000
                    CHANNELS 3 Zrotation Xrotation Yrotation
                    JOINT LeftElbow
                    {
                        OFFSET 0.291248 0.000000 0.000000
                        CHANNELS 3 Zrotation Xrotation Yrotation
                        JOINT LeftWrist
                        {
                            OFFSET 0.245673 0.000000 0.000000
                            CHANNELS 3 Zrotation Xrotation Yrotation
                            End Site
                            {
                                OFFSET 0.152213 0.000000 0.000000
                            }
                        }
                    }
                }
            }
            JOINT RightCollar
            {
                OFFSET -0.040052 0.235234 -0.000041
                CHANNELS 3 Zrotation Xrotation Yrotation
                JOINT RightShoulder
                {
                    OFFSET -0.117964 0.000000 0.000000
                    CHANNELS 3 Zrotation Xrotation Yrotation
                    JOINT RightElbow
                    {
                        OFFSET -0.291248 0.000000 0.000000
                        CHANNELS 3 Zrotation Xrotation Yrotation
                        JOINT RightWrist
                        {
                            OFFSET -0.245673 0.000000 0.000000
                            CHANNELS 3 Zrotation Xrotation Yrotation
                            End Site
                            {
                                OFFSET -0.152213 0.000000 0.000000
                            }
                        }
                    }
                }
            }
        }
    }
    JOINT LeftHip
    {
        OFFSET 0.101475 0.000000 0.000000
        CHANNELS 3 Zrotation Xrotation Yrotation
        JOINT LeftKnee
        {
            OFFSET -0.000000 -0.446535 0.000000
            CHANNELS 3 Zrotation Xrotation Yrotation
            JOINT LeftAnkle
            {
                OFFSET -0.000000 -0.400037 0.000000
                CHANNELS 3 Zrotation Xrotation Yrotation
                JOINT LeftToe
                {
                    OFFSET -0.000000 -0.065959 0.152213
                    CHANNELS 3 Zrotation Xrotation Yrotation
                    End Site
                    {
                        OFFSET -0.000000 0.000000 0.040590
                    }
                }
            }
        }
    }
    JOINT RightHip
    {
        OFFSET -0.101475 0.000000 0.000000
        CHANNELS 3 Zrotation Xrotation Yrotation
        JOINT RightKnee
        {
            OFFSET -0.000000 -0.446535 0.000000
            CHANNELS 3 Zrotation Xrotation Yrotation
            JOINT RightAnkle
            {
                OFFSET -0.000000 -0.400037 0.000000
                CHANNELS 3 Zrotation Xrotation Yrotation
                JOINT RightToe
                {
                    OFFSET -0.000000 -0.065959 0.152213
                    CHANNELS 3 Zrotation Xrotation Yrotation
                    End Site
                    {
                        OFFSET -0.000000 0.000000 0.040590
                    }
                }
            }
        }
    }
}
MOTION
Frames:    4
Frame Time:    0.008333
0.323245    0.952301    -0.023467    1.065357    -2.419291    -3.355702    -1.202450    -1.233831    -0.384822    -1.997515    5.656675    -0.025435    2.623975    4.460845    0.358739    3.428122    -1.428688    0.620438    15.816230    1.290309    2.126008    -21.616795    -2.840991    4.710566    1.220324    -0.658669    -0.583390    8.003149    -0.514371    1.974836    -9.233669    4.697737    4.761182    16.451321    -1.894317    -0.944122    -0.606052    -3.091724    0.545970    3.454998    -3.184736    -3.183751    3.607955    6.032103    3.482826    -0.577818    3.124585    8.076480    -4.022301    -6.672268    -1.102524    0.037187    3.614281    -0.317557    -6.171570    1.305184    7.615798    2.704463    11.537774    2.023976    4.084009    -12.001725    -9.183431    0.000409    2.857493    0.606385    
0.323210    0.952289    -0.023541    1.068129    -2.417732    -3.343363    -1.210414    -1.219233    -0.387898    -1.994339    5.647621    -0.026663    2.620593    4.459807    0.358407    3.429213    -1.418363    0.620281    15.811611    1.282412    2.120524    -21.634159    -2.845538    4.721649    1.222931    -0.647151    -0.594694    7.981035    -0.503577    1.968223    -9.225761    4.700586    4.759673    16.450949    -1.925873    -0.952853    -0.587330    -3.061943    0.544859    3.465700    -3.155829    -3.199187    3.609847    6.028386    3.487921    -0.578897    3.115585    8.061050    -4.021767    -6.663904    -1.103750    0.037854    3.611862    -0.323312    -6.174730    1.282035    7.645044    2.721690    11.582559    2.020070    4.067324    -12.039104    -9.217069    0.000462    2.846606    0.600817    
0.323180    0.952289    -0.023620    1.069888    -2.412962    -3.336890    -1.215855    -1.205444    -0.386828    -1.992120    5.633380    -0.026555    2.620529    4.468318    0.361613    3.425366    -1.423634    0.622730    15.804999    1.277258    2.114807    -21.651329    -2.842033    4.728639    1.230838    -0.642648    -0.599600    7.951608    -0.499394    1.969733    -9.220916    4.696291    4.760675    16.454233    -1.926304    -0.966373    -0.567635    -3.053975    0.538881    3.420592    -3.147005    -3.208147    3.611453    6.020242    3.493241    -0.579225    3.110198    8.059986    -4.022734    -6.657865    -1.114554    0.037370    3.604172    -0.319363    -6.174938    1.256498    7.660964    2.729445    11.624416    2.047561    4.054325    -12.069066    -9.263124    0.000527    2.833739    0.597786    
0.323141    0.952297    -0.023695    1.069766    -2.408710    -3.333583    -1.218994    -1.192831    -0.388484    -1.991405    5.622481    -0.027139    2.618585    4.468345    0.366809    3.425842    -1.416754    0.627948    15.802172    1.272859    2.113572    -21.665665    -2.854991    4.738825    1.231267    -0.631380    -0.604867    7.897489    -0.489187    1.966917    -9.219780    4.690446    4.772530    16.459032    -1.913584    -0.980484    -0.561415    -3.039328    0.532446    3.449772    -3.133632    -3.221793    3.615075    6.014581    3.497393    -0.579080    3.102550    8.055088    -4.027369    -6.653421    -1.117665    0.036614    3.606744    -0.312836    -6.172004    1.226786    7.678530    2.740247    11.671762    2.051324    4.041577    -12.099603    -9.283070    0.000558    2.826049    0.587878    
